# Blender 3.4.1
# www.blender.org
mtllib cohete.mtl
o Cube
v 0.132789 1.165839 -0.140273
v 0.151057 -1.005856 -0.331005
v 0.132789 1.165839 0.140273
v 0.144852 -1.002033 0.350746
v -0.132789 1.165839 -0.140273
v -0.151057 -1.005856 -0.331005
v -0.132789 1.165839 0.140273
v -0.144852 -1.002033 0.350746
v 0.193792 1.000000 0.201276
v -0.193792 1.000000 0.201276
v 0.193792 1.000000 -0.201276
v -0.193792 1.000000 -0.201276
v 0.132789 1.165839 0.140273
v -0.132789 1.165839 0.140273
v 0.132789 1.165839 -0.140273
v -0.132789 1.165839 -0.140273
v 0.132789 1.165839 -0.140273
v 0.132789 1.165839 -0.140273
v 0.132789 1.165839 0.140273
v 0.132789 1.165839 0.140273
v -0.132789 1.165839 0.140273
v -0.132789 1.165839 0.140273
v -0.132789 1.165839 -0.140273
v -0.132789 1.165839 -0.140273
v 0.151057 -0.635113 -0.331005
v -0.144852 -0.618556 0.350746
v 0.144852 -0.618556 0.350746
v -0.151057 -0.635113 -0.331005
v 0.193792 -1.000000 -0.201276
v -0.193792 -1.000000 -0.201276
v 0.193792 -0.518644 -0.201276
v -0.193792 -0.518644 -0.201276
v 0.193792 -0.518644 0.201276
v 0.193792 -1.000000 0.201276
v -0.193792 -1.000000 0.201276
v -0.193792 -0.518644 0.201276
vn -0.0000 1.0000 -0.0000
vn -0.0000 -0.0000 1.0000
vn -1.0000 -0.0000 -0.0000
vn -0.0000 -1.0000 -0.0000
vn 1.0000 -0.0000 -0.0000
vn -0.0000 -0.0000 -1.0000
vn -0.0000 0.3452 -0.9385
vn 0.9385 0.3452 -0.0000
vn -0.0000 0.3452 0.9385
vn -0.9385 0.3452 -0.0000
vn -0.0000 -0.9990 0.0451
vn 0.9498 -0.0000 -0.3129
vn -0.9498 -0.0000 -0.3129
vn -0.0000 0.7441 -0.6681
vn 0.9504 -0.0000 0.3112
vn -0.0000 -0.9999 -0.0136
vn -0.9504 -0.0000 0.3112
vn -0.0000 0.8314 0.5557
vt 0.664348 0.537885
vt 0.386097 0.472435
vt 0.664348 0.712115
vt 0.387709 0.781567
vt 0.835652 0.537885
vt 0.386097 0.277565
vt 0.835652 0.712115
vt 0.387709 0.968433
vt 0.625000 0.750000
vt 0.625000 1.000000
vt 0.625000 0.000000
vt 0.875000 0.750000
vt 0.625000 0.500000
vt 0.625000 0.250000
vt 0.875000 0.500000
vt 0.664348 0.712115
vt 0.835652 0.712115
vt 0.664348 0.537885
vt 0.835652 0.537885
vt 0.664348 0.537885
vt 0.664348 0.537885
vt 0.664348 0.712115
vt 0.664348 0.712115
vt 0.835652 0.712115
vt 0.835652 0.712115
vt 0.835652 0.537885
vt 0.835652 0.537885
vt 0.488902 0.472435
vt 0.487291 0.968433
vt 0.487291 0.781567
vt 0.488902 0.277565
vt 0.375000 0.500000
vt 0.125000 0.500000
vt 0.375000 0.250000
vt 0.500000 0.500000
vt 0.500000 0.250000
vt 0.500000 0.750000
vt 0.375000 0.750000
vt 0.375000 0.000000
vt 0.125000 0.750000
vt 0.375000 1.000000
vt 0.500000 0.000000
vt 0.500000 1.000000
s 0
usemtl Material
f 5/5/1 3/3/1 1/1/1
f 9/9/2 36/43/2 33/37/2
f 10/11/3 32/36/3 36/42/3
f 29/32/4 35/40/4 30/33/4
f 11/13/5 33/37/5 31/35/5
f 12/14/6 31/35/6 32/36/6
f 20/23/1 14/17/1 13/16/1
f 18/21/1 13/16/1 15/18/1
f 22/25/1 16/19/1 14/17/1
f 24/27/1 15/18/1 16/19/1
f 15/18/1 19/22/1 17/20/1
f 13/16/1 21/24/1 19/22/1
f 16/19/1 17/20/1 23/26/1
f 14/17/1 23/26/1 21/24/1
f 17/20/7 12/15/7 23/26/7
f 1/1/1 20/23/1 18/21/1
f 19/22/8 11/13/8 17/20/8
f 3/3/1 22/25/1 20/23/1
f 7/7/1 24/27/1 22/25/1
f 21/24/9 9/9/9 19/22/9
f 5/5/1 18/21/1 24/27/1
f 23/26/10 10/12/10 21/24/10
f 6/6/6 25/28/6 2/2/6
f 31/35/5 34/38/5 29/32/5
f 36/42/3 30/34/3 35/39/3
f 27/30/2 8/8/2 4/4/2
f 2/2/11 30/34/11 6/6/11
f 25/28/12 29/32/12 2/2/12
f 28/31/13 30/34/13 32/36/13
f 28/31/14 31/35/14 25/28/14
f 27/30/15 34/38/15 33/37/15
f 8/8/16 34/38/16 4/4/16
f 26/29/17 35/41/17 8/8/17
f 27/30/18 36/43/18 26/29/18
f 5/5/1 7/7/1 3/3/1
f 9/9/2 10/10/2 36/43/2
f 10/11/3 12/14/3 32/36/3
f 29/32/4 34/38/4 35/40/4
f 11/13/5 9/9/5 33/37/5
f 12/14/6 11/13/6 31/35/6
f 20/23/1 22/25/1 14/17/1
f 18/21/1 20/23/1 13/16/1
f 22/25/1 24/27/1 16/19/1
f 24/27/1 18/21/1 15/18/1
f 15/18/1 13/16/1 19/22/1
f 13/16/1 14/17/1 21/24/1
f 16/19/1 15/18/1 17/20/1
f 14/17/1 16/19/1 23/26/1
f 17/20/7 11/13/7 12/15/7
f 1/1/1 3/3/1 20/23/1
f 19/22/8 9/9/8 11/13/8
f 3/3/1 7/7/1 22/25/1
f 7/7/1 5/5/1 24/27/1
f 21/24/9 10/12/9 9/9/9
f 5/5/1 1/1/1 18/21/1
f 23/26/10 12/15/10 10/12/10
f 6/6/6 28/31/6 25/28/6
f 31/35/5 33/37/5 34/38/5
f 36/42/3 32/36/3 30/34/3
f 27/30/2 26/29/2 8/8/2
f 2/2/11 29/32/11 30/34/11
f 25/28/12 31/35/12 29/32/12
f 28/31/13 6/6/13 30/34/13
f 28/31/14 32/36/14 31/35/14
f 27/30/15 4/4/15 34/38/15
f 8/8/16 35/41/16 34/38/16
f 26/29/17 36/43/17 35/41/17
f 27/30/18 33/37/18 36/43/18
